<?xml version="1.0" encoding="utf-8"?>
<!-- Generator: Adobe Illustrator 24.2.3, SVG Export Plug-In . SVG Version: 6.00 Build 0)  -->
<svg version="1.1" id="Layer_1" xmlns="http://www.w3.org/2000/svg" xmlns:xlink="http://www.w3.org/1999/xlink" x="0px" y="0px"
	 viewBox="0 0 419 162" style="enable-background:new 0 0 419 162;" xml:space="preserve">
<style type="text/css">
	.st0{fill:#FFFFFF;}
	.st1{fill:#012169;}
	.st2{fill:#070B47;}
</style>
<g>
	<path class="st1" d="M204.6,102.42h-1.8v-10.9c0-2.45-0.7-4.4-2.15-5.85c-0.6-0.55-1.3-1-2.1-1.35c2.8-1.05,4.2-3.8,4.2-8.25
		c0-5.95-2.35-8.7-7.6-8.7h-7.65v-1.8h7.65c6.35,0,9.35,3.65,9.35,10.5c0,3.4-0.75,6-2.2,7.75c-0.05,0.05-0.15,0.15-0.2,0.25
		c-0.1,0.1-0.2,0.2-0.3,0.25c1.8,1.75,2.8,4.15,2.8,7.2V102.42z M187.5,68.51h1.75v33.9h-1.75V68.51z M190.45,83.67V68.51h4.7
		c4.55,0,6.4,2.2,6.4,7.55c0,5.4-1.85,7.6-6.4,7.6H190.45z M201.65,102.42h-1.8v-10.9c0-3.25-1.55-4.85-4.7-4.85h-2.95v15.75h-1.75
		V84.87h4.7c4.15,0,6.5,2.4,6.5,6.65V102.42z M192.2,70.32v11.6h2.95c1.25,0,2.15-0.15,2.65-0.45c0.45-0.3,0.75-0.55,0.9-0.7
		c0.75-0.95,1.1-2.5,1.1-4.7c0-2.45-0.4-3.9-1.15-4.75c-0.8-0.8-1.95-1-3.5-1H192.2z"/>
	<path class="st1" d="M215.1,67.37v33.3h13.5v1.75h-15.25V65.56h15.25v1.8H215.1z M216.3,68.51h12.3v1.8h-10.55v11.3h10.55v1.8
		h-12.3V68.51z M216.3,84.57h12.3v1.8h-10.55v11.35h10.55v1.75h-12.3V84.57z"/>
	<path class="st1" d="M254.5,78.32h-1.75v-2.35c0-5.65-2.3-8.65-7.05-8.65c-4.65,0-7,3-7,8.65v15.9c0,5.75,2.4,8.75,7,8.75
		c4.65,0,7.05-3,7.05-8.75v-5.75h-8.7v-1.75h10.45v7.5c0,3.3-0.7,5.85-2.15,7.6c-1.05,1.35-3.05,2.9-6.65,2.9s-5.55-1.55-6.6-2.9
		c-1.45-1.75-2.15-4.3-2.15-7.6v-15.9c0-6.55,2.95-10.45,8.75-10.45c5.85,0,8.8,3.9,8.8,10.45V78.32z M251.55,78.32h-1.8v-2.35
		c0-2.65-0.5-4.05-1.25-4.85c-0.8-0.75-1.8-0.85-2.8-0.85s-2,0.1-2.75,0.85c-0.8,0.8-1.3,2.2-1.3,4.85v15.9
		c0,2.95,0.65,4.35,1.5,5.05c0.85,0.7,1.8,0.75,2.55,0.75s1.75-0.05,2.6-0.75c0.8-0.7,1.45-2.1,1.45-5.05v-2.8h-5.7v-1.75h7.5v4.55
		c0,2.65-0.5,4.55-1.5,5.75c-0.9,1.2-2.35,1.8-4.35,1.8c-1.95,0-3.4-0.6-4.3-1.8c-1-1.2-1.5-3.1-1.5-5.75v-15.9
		c0-5.2,1.95-7.5,5.8-7.5s5.85,2.3,5.85,7.5V78.32z"/>
	<path class="st1" d="M280.1,91.82c0,3.3-0.7,5.8-2.1,7.55c-0.55,0.65-1.25,1.4-2.35,1.95c-1.1,0.6-2.5,1-4.3,1
		c-3.6,0-5.6-1.6-6.65-2.95c-1.4-1.75-2.1-4.25-2.1-7.55v-15.9c0-3.25,0.7-5.75,2.1-7.55c1.05-1.35,3.05-2.9,6.65-2.9
		s5.6,1.55,6.65,2.9c1.4,1.8,2.1,4.3,2.1,7.55V91.82z M278.35,75.92c0-5.65-2.4-8.7-7-8.7s-7,3.05-7,8.7v15.9
		c0,5.65,2.45,8.75,7,8.75s7-3.1,7-8.75V75.92z M277.15,91.82c0,5.05-1.95,7.55-5.8,7.55s-5.8-2.5-5.8-7.55v-15.9
		c0-2.6,0.5-4.5,1.5-5.7c0.9-1.2,2.35-1.8,4.3-1.8s3.4,0.6,4.3,1.8c1,1.2,1.5,3.1,1.5,5.7V91.82z M275.4,75.92
		c0-2.85-0.65-4.35-1.5-5.05s-1.9-0.7-2.55-0.7c-0.75,0-1.7,0-2.55,0.7s-1.5,2.2-1.5,5.05v15.9c0,2.95,0.65,4.35,1.5,5.05
		c0.85,0.7,1.8,0.75,2.55,0.75c0.65,0,1.7-0.05,2.55-0.75c0.85-0.7,1.5-2.1,1.5-5.05V75.92z"/>
	<path class="st1" d="M305.45,78.47h-1.8v-2.35c0-5.85-2.35-8.75-7-8.75c-4.55,0-7.05,3.7-7.05,8.75c0,2.85,1.1,4.8,2.5,6.1
		c1.35,1.3,2.95,2,3.9,2.4l0.85,0.4c0.85,0.35,2.25,0.85,3.45,1.95c1.2,1.1,2.2,2.8,2.2,5.25c0,4.6-2.2,7.25-5.85,7.25
		c-3.95,0-5.85-2.3-5.85-7.5v-2.35h1.75v2.35c0,2.15,0.4,3.7,1.15,4.65c0.15,0.25,0.45,0.45,0.9,0.7s1.1,0.4,2.05,0.4
		c1.8,0,2.8-0.9,3.4-2c0.55-1.1,0.65-2.5,0.65-3.5c0-1.75-0.6-2.9-1.45-3.75c-0.85-0.8-2-1.35-3.05-1.8l-0.9-0.4
		c-1.05-0.45-2.85-1.2-4.45-2.75c-2-1.95-3-4.4-3-7.4c0-3.15,0.85-5.8,2.45-7.65c1.55-1.8,3.75-2.9,6.35-2.9
		c3.6,0,5.6,1.55,6.65,2.9c1.45,1.85,2.15,4.4,2.15,7.65V78.47z M287.85,89.62h1.75v2.35c0,5.75,2.4,8.7,7.05,8.7
		c2.2,0,4.05-0.85,5.25-2.5c1.15-1.45,1.75-3.55,1.75-5.95c0-2.85-1.15-4.8-2.5-6.05c-1.4-1.25-3-1.9-3.85-2.25l-0.8-0.35
		c-0.95-0.4-2.35-1-3.55-2.2c-1.2-1.15-2.15-2.8-2.15-5.25c0-1.75,0.35-3.65,1.3-5.1c0.95-1.45,2.4-2.5,4.55-2.5
		c3.85,0,5.85,2.4,5.85,7.6v2.35h-1.8v-2.35c0-2.85-0.65-4.4-1.5-5.1c-0.85-0.7-1.9-0.7-2.55-0.7c-1.95,0-2.9,1.05-3.45,2.35
		c-0.6,1.3-0.65,2.8-0.65,3.45c0,1.75,0.6,2.9,1.45,3.8c0.85,0.9,2,1.55,3.2,2l0.8,0.35c0.95,0.4,2.75,1.05,4.35,2.6
		c2.05,1.9,3.1,4.35,3.1,7.35c0,5.65-3.15,10.2-8.8,10.2c-5.85,0-8.8-3.85-8.8-10.45V89.62z"/>
	<path class="st1" d="M336.4,100.47h1.05l7.65-34.9h1.85l-8.15,36.85H335l-5.15-23.5l-5.2,23.5h-3.8l-8.15-36.85h1.85l7.7,34.9h1
		l6.6-29.8L336.4,100.47z M336.9,97.32l-6.55-29.8h-1.05l-6.55,29.8l-7-31.75h1.8l5.2,23.55l5.2-23.55h3.8l5.15,23.55l5.2-23.55h1.8
		L336.9,97.32z"/>
	<path class="st1" d="M362.75,65.56h3.75l8.55,36.85h-1.85l-8.05-34.75h-1.1L356,102.42h-1.8L362.75,65.56z M359.05,102.42h-1.85
		l2.8-12.05h9.2l2.8,12.05h-1.8l-2.4-10.25h-6.4L359.05,102.42z M364.6,70.57l4.3,18.65h-8.65L364.6,70.57z M364.6,78.42l-2.1,9h4.2
		L364.6,78.42z"/>
	<path class="st1" d="M386.85,86.22v16.1h-1.75V84.47h4.7c5.2,0,7.6-2.7,7.6-8.65c0-5.85-2.4-8.6-7.6-8.6h-7.65v-1.75h7.65
		c3.15,0,5.55,0.9,7.15,2.75c1.5,1.7,2.25,4.25,2.25,7.6c0,6.75-3.05,10.4-9.4,10.4H386.85z M382.15,68.42h1.75v33.9h-1.75V68.42z
		 M385.1,83.27V68.42h4.7c4.55,0,6.45,2.15,6.45,7.4s-1.9,7.45-6.45,7.45H385.1z M386.85,70.17v11.35h2.95c1.3,0,2.2-0.15,2.65-0.45
		c0.45-0.3,0.75-0.55,0.9-0.7c0.75-0.85,1.1-2.35,1.1-4.55c0-2.4-0.4-3.8-1.15-4.6c-0.8-0.8-1.95-1.05-3.5-1.05H386.85z"/>
</g>
<g>
	<path class="st1" d="M50.83,139.78c-6.25,0-12.22,0-18.39,0c0-37.23,0-74.36,0-111.7c6.06,0,12.08,0,18.32,0c0,4.55,0,9.08,0,14.22
		c10.61-9.07,22.41-13.87,35.85-14.27c13.39-0.4,25.41,3.51,36.11,11.63c-4.45,4.45-8.75,8.73-12.71,12.68
		c-4.64-1.75-9.02-3.95-13.67-5.06c-20.31-4.85-41.39,9.23-44.89,29.79c-0.44,2.6-0.47,5.29-0.48,7.95
		c-0.08,17.48-0.1,34.96-0.14,52.44C50.83,138.14,50.83,138.82,50.83,139.78z"/>
	<path class="st1" d="M87.84,93.15c0-6.29,0-12.2,0-18.35c18.77,0,37.49,0,56.42,0c0,21.6,0,43.14,0,64.89c-6.04,0-12.06,0-18.31,0
		c0-4.55,0-9.08,0-14.18c-1.03,0.83-1.63,1.32-2.25,1.8c-15.79,12.22-33.27,15.51-52.45,9.93c-1.56-0.45-2.14-1.12-2.11-2.82
		c0.12-5.92,0.05-11.84,0.05-18.05c14.23,7.28,27.97,6.9,41.09-2.08c7.45-5.1,13.64-14.63,14.15-21.16
		C112.3,93.15,100.18,93.15,87.84,93.15z"/>
</g>
</svg>
